<svg width="21" height="21" viewBox="0 0 21 21" fill="none" xmlns="http://www.w3.org/2000/svg"><path d="m12.698 19.532-.075-6.508a.63.63 0 0 1 .492-.526l6.524-.071c.248.032.447-.195.49-.527l-.03-3.633c.033-.249-.194-.447-.527-.491l-6.524.07a.63.63 0 0 1-.528-.49l-.076-6.51c.033-.248-.194-.447-.527-.49L8.276.382C8.027.35 7.83.577 7.785.91l.075 6.508a.63.63 0 0 1-.492.526l-6.524.071c-.25-.033-.448.195-.492.526l.03 3.635c-.032.248.195.447.528.49l6.524-.07a.63.63 0 0 1 .527.491l.077 6.51c-.033.248.195.447.527.49l3.642-.027a.63.63 0 0 0 .492-.528z" fill="#FDD08D"/></svg>