<svg width="17" height="17" viewBox="0 0 17 17" fill="none" xmlns="http://www.w3.org/2000/svg"><path d="m9.923 15.798.168-5.205a.503.503 0 0 1 .412-.403l5.217.17c.197.036.364-.138.41-.402l.104-2.905c.034-.198-.14-.365-.405-.411L10.61 6.47a.505.505 0 0 1-.404-.41l.167-5.205c.035-.198-.14-.365-.404-.411L7.06.339c-.2-.036-.366.138-.413.402L6.48 5.947a.504.504 0 0 1-.412.403L.852 6.179c-.198-.036-.365.138-.412.402L.337 9.487c-.035.198.14.364.405.41l5.216.172a.505.505 0 0 1 .405.41l-.167 5.205c-.035.198.14.365.404.411l2.912.105a.503.503 0 0 0 .411-.402z" fill="#FDD08D"/></svg>