<svg width="42" height="42" viewBox="0 0 42 42" fill="none" xmlns="http://www.w3.org/2000/svg"><path d="M1.912 29.724c-4.854-10.495-.13-22.958 10.364-27.812 10.495-4.854 22.958-.13 27.812 10.364 4.854 10.495.13 22.958-10.364 27.812-10.495 4.854-22.958.13-27.812-10.364zM7.685 27.1a14.74 14.74 0 0 0 19.546 7.215 14.74 14.74 0 0 0 7.217-19.546C31.036 7.289 22.377 4.14 14.9 7.552 7.553 10.964 4.274 19.753 7.685 27.1z" fill="url(#paint0_linear_1_915)"/><defs><linearGradient id="paint0_linear_1_915" x1="12.5652" y1="1.81889" x2="29.5502" y2="40.2278" gradientUnits="userSpaceOnUse"><stop stop-color="#BFF0DD"/><stop offset="1" stop-color="#57D2A3"/></linearGradient></defs></svg>