<svg width="21" height="21" viewBox="0 0 21 21" fill="none" xmlns="http://www.w3.org/2000/svg"><path d="m11.193 20.494 1.383-6.36a.63.63 0 0 1 .598-.403l6.374 1.391c.236.09.48-.088.597-.401l.784-3.55c.087-.235-.09-.48-.405-.596l-6.374-1.39a.63.63 0 0 1-.404-.598l1.383-6.36c.087-.236-.09-.48-.405-.597L11.17.839c-.236-.087-.481.09-.598.404L9.19 7.604a.63.63 0 0 1-.598.403l-6.375-1.39c-.235-.089-.48.088-.597.402l-.784 3.547c-.087.235.09.48.405.597l6.375 1.39a.63.63 0 0 1 .404.597l-1.384 6.362c-.088.235.09.48.404.597l3.556.786a.63.63 0 0 0 .597-.402z" fill="#FDD08D"/></svg>