<svg width="20" height="20" viewBox="0 0 20 20" fill="none" xmlns="http://www.w3.org/2000/svg"><path d="M.909 14.154C-1.4 9.157.845 3.222 5.833.911 10.82-1.4 16.744.849 19.049 5.847c2.306 4.997.062 10.932-4.925 13.243-4.987 2.31-10.91.062-13.216-4.936zm2.742-1.25a6.998 6.998 0 0 0 9.288 3.437 7.025 7.025 0 0 0 3.429-9.307c-1.622-3.561-5.736-5.06-9.29-3.436-3.49 1.624-5.05 5.81-3.428 9.308z" fill="url(#paint0_linear_1_913)"/><defs><linearGradient id="paint0_linear_1_913" x1="5.97093" y1="0.866138" x2="14.0704" y2="19.1436" gradientUnits="userSpaceOnUse"><stop stop-color="#BFF0DD"/><stop offset="1" stop-color="#57D2A3"/></linearGradient></defs></svg>