
<svg id="#stars" width="190" height="24" viewBox="0 0 190 24" fill="#fb8f1d" xmlns="http://www.w3.org/2000/svg"><g clip-path="url(#clip0_1_1032)"><path d="m12.585 20.049 6 3.657c1.171.732 2.488-.292 2.196-1.61l-1.61-6.878 5.415-4.683c1.025-.878.44-2.488-.878-2.635l-7.024-.585-2.78-6.44a1.54 1.54 0 0 0-2.78 0L8.34 7.464l-7.023.586C0 8.048-.439 9.658.44 10.536l5.414 4.682-1.61 6.878c-.293 1.317 1.024 2.195 2.195 1.61l6.145-3.66z" fill="#FFBB0C"/></g><g clip-path="url(#clip1_1_1032)"><path d="m53.585 20.049 6 3.657c1.171.732 2.488-.292 2.195-1.61l-1.61-6.878 5.415-4.683c1.025-.878.44-2.488-.878-2.635l-7.024-.585-2.78-6.44a1.54 1.54 0 0 0-2.78 0L49.34 7.464l-7.023.586c-1.317-.001-1.756 1.609-.878 2.487l5.414 4.682-1.61 6.878c-.293 1.317 1.024 2.195 2.195 1.61l6.145-3.66z" fill="#FFBB0C"/></g><g clip-path="url(#clip2_1_1032)"><path d="m94.585 20.049 6 3.657c1.17.732 2.488-.292 2.195-1.61l-1.61-6.878 5.415-4.683c1.025-.878.44-2.488-.878-2.635l-7.024-.585-2.78-6.44a1.54 1.54 0 0 0-2.781 0l-2.78 6.586-7.025.586c-1.317-.001-1.756 1.609-.878 2.487l5.414 4.682-1.61 6.878c-.293 1.317 1.024 2.195 2.195 1.61l6.145-3.66z" fill="#FFBB0C"/></g><g clip-path="url(#clip3_1_1032)"><path d="m135.585 20.049 6 3.657c1.17.732 2.488-.292 2.195-1.61l-1.61-6.878 5.415-4.683c1.025-.878.44-2.488-.878-2.635l-7.024-.585-2.78-6.44a1.54 1.54 0 0 0-2.78 0l-2.782 6.586-7.023.586c-1.317-.001-1.756 1.609-.878 2.487l5.414 4.682-1.61 6.878c-.293 1.317 1.024 2.195 2.195 1.61l6.145-3.66z" fill="#FFBB0C"/></g><g clip-path="url(#clip4_1_1032)"><path d="m176.585 20.049 6 3.657c1.17.732 2.488-.292 2.195-1.61l-1.61-6.878 5.415-4.683c1.025-.878.44-2.488-.878-2.635l-7.024-.585-2.78-6.44a1.54 1.54 0 0 0-2.78 0l-2.782 6.586-7.023.586c-1.317-.001-1.756 1.609-.878 2.487l5.414 4.682-1.61 6.878c-.293 1.317 1.024 2.195 2.195 1.61l6.145-3.66z" fill="#FFBB0C"/></g><defs><clipPath id="clip0_1_1032"><rect width="25.024" height="24" fill="white"/></clipPath><clipPath id="clip1_1_1032"><rect width="25.024" height="24" fill="white" transform="translate(41)"/></clipPath><clipPath id="clip2_1_1032"><rect width="25.024" height="24" transform="translate(82)"/></clipPath><clipPath id="clip3_1_1032"><rect width="25.024" height="24" fill="white" transform="translate(123)"/></clipPath><clipPath id="clip4_1_1032"><rect width="25.024" height="24" fill="white" transform="translate(164)"/></clipPath></defs></svg>