<svg width="22" height="22" viewBox="0 0 22 22" fill="none" xmlns="http://www.w3.org/2000/svg"><path d="M1 15.57C-1.538 10.072.93 3.544 6.417 1.002c5.486-2.543 12-.07 14.538 5.428 2.537 5.498.068 12.026-5.418 14.568-5.486 2.543-12 .07-14.537-5.428zm3.017-1.375a7.698 7.698 0 0 0 10.217 3.78 7.728 7.728 0 0 0 3.772-10.24C16.223 3.82 11.697 2.17 7.788 3.957c-3.84 1.787-5.554 6.391-3.771 10.24z" fill="url(#paint0_linear_1_914)"/><defs><linearGradient id="paint0_linear_1_914" x1="6.56802" y1="0.952751" x2="15.4774" y2="21.0579" gradientUnits="userSpaceOnUse"><stop stop-color="#BFF0DD"/><stop offset="1" stop-color="#57D2A3"/></linearGradient></defs></svg>